<svg t="1748308112871" class="icon" viewBox="0 0 1024 1024" version="1.1" xmlns="http://www.w3.org/2000/svg" p-id="6236" width="200" height="200"><path d="M393.112 902.797h226.962c28.88-0.022 56.486-11.544 76.382-31.877 20.328-20.29 31.751-48.034 31.585-76.92H285.203c0.224 60.11 48.439 108.797 107.965 108.96v-0.163h-0.056zM691.416 122.018c120.565-1.524 219.627 95.741 221.53 217.486v5.004a39.235 39.235 0 0 1 10.416-1.468c20.666 0.505 37.03 17.13 36.63 37.208v143.396c0.374 20.142-15.907 36.877-36.63 37.643a35.363 35.363 0 0 1-13.831-2.828c-19.824 105.479-111.773 181.365-218.17 179.896H322.273c-52.527 0-103.317-18.386-143.804-52.114h-0.056v0.11c-39.585-33.327-65.93-79.049-74.478-129.252h-3.192c-19.44-0.483-35.33-15.213-36.74-34.054V376.713c-0.309-20.066 16.088-36.625 36.74-37.1-0.19-57.569 23.107-112.865 64.79-153.786 41.317-40.903 97.86-63.906 156.852-63.81z m77.782 143.884c-23.39-23.208-55.55-36.086-88.981-35.63h-361.75c-68.88-0.817-125.382 54.833-126.334 124.41v177.61c0.341 33.233 13.907 65.047 37.855 88.78 23.393 23.176 55.515 36.067 88.926 35.685h361.303c68.99 0.816 125.604-54.834 126.668-124.464V354.68c-0.336-33.51-13.943-65.442-37.687-88.779z" fill="currentColor" p-id="6237"></path><path d="M571.468 405.103v98.843c1.007 30.19 25.87 53.909 55.774 53.201 14.495-0.46 28.169-6.65 37.855-17.135 9.856-10.608 15.12-24.697 14.672-39.222v-95.197c0.056-14.58-5.6-28.614-15.848-38.895-10.029-10.224-23.934-16.004-38.47-15.994-29.792 0.11-53.871 24.48-53.927 54.562v-0.163h-0.056zM318.522 405.103v95.687c0 14.58 5.656 28.56 15.848 38.841 10.027 10.214 23.926 15.989 38.455 15.978 14.529-0.01 28.419-5.804 38.43-16.032 10.136-10.336 15.848-24.262 15.793-38.787v-95.197c0-14.47-5.713-28.397-15.904-38.623-9.989-10.156-23.809-15.915-38.268-15.945-14.458-0.031-28.304 5.668-38.338 15.781-10.273 10.383-16.012 24.223-16.016 38.623v-0.326z" fill="currentColor" p-id="6238"></path></svg>
