<svg xmlns="http://www.w3.org/2000/svg" xmlns:xlink="http://www.w3.org/1999/xlink" fill="none" version="1.1" width="90" height="90" viewBox="0 0 90 90"><defs><linearGradient x1="1" y1="0.5" x2="0" y2="0.5" id="master_svg0_5_8335"><stop offset="0%" stop-color="#F381FF" stop-opacity="1"/><stop offset="100%" stop-color="#3B9AFE" stop-opacity="1"/></linearGradient></defs><g><g><g><path d="M68.8592,56.1337C67.6713,54.9459,66.2385,54.1682,64.7247,53.7913C61.9852,53.1092,58.9661,52.6018,56.9699,50.6056C53.8722,47.5081,53.8722,42.4859,56.9699,39.3884L88.6858,7.67451C90.4381,5.9224,90.4381,3.0662,88.6858,1.31409C86.9336,-0.438029,84.0772,-0.438029,82.325,1.31409C61.7106,21.9271,28.2894,21.9271,7.67503,1.31409C5.92279,-0.438029,3.06641,-0.438029,1.31418,1.31409C-0.438059,3.0662,-0.438059,5.9224,1.31418,7.67451L33.0302,39.3884C36.1279,42.4859,36.1279,47.5081,33.0302,50.6056C31.0339,52.6018,28.0147,53.1092,25.2753,53.7913C23.7615,54.1682,22.3287,54.9459,21.1408,56.1337L2.63435,74.639C-0.870114,78.1432,-0.870114,83.8556,2.63435,87.3598C4.38659,89.112,6.6909,90,8.9952,90C11.2995,90,13.6038,89.112,15.3561,87.3598L33.8606,68.8565C33.8619,68.8552,33.863,68.8542,33.8642,68.8529C35.0512,67.6654,35.8284,66.2334,36.2052,64.7204C36.8874,61.9806,37.395,58.962,39.3915,56.9655C42.4891,53.8682,47.511,53.8682,50.6085,56.9655C52.6051,58.962,53.1126,61.9806,53.7949,64.7204C54.1718,66.2341,54.9496,67.6668,56.1375,68.8546L74.644,87.3598C76.3962,89.112,78.7005,90,81.0048,90C83.3091,90,85.6134,89.112,87.3657,87.3598C90.8701,83.8556,90.8701,78.1432,87.3657,74.639L68.8592,56.1337Z" fill="url(#master_svg0_5_8335)" fill-opacity="1"/></g></g></g></svg>
